<mxfile host="Electron" agent="Mozilla/5.0 (Windows NT 10.0; Win64; x64) AppleWebKit/537.36 (KHTML, like Gecko) draw.io/26.0.16 Chrome/132.0.6834.196 Electron/34.2.0 Safari/537.36" version="26.0.16">
  <diagram name="Page-1" id="yuqq3_zgFCWJI1XXZt3I">
    <mxGraphModel dx="1393" dy="754" grid="1" gridSize="10" guides="1" tooltips="1" connect="1" arrows="1" fold="1" page="1" pageScale="1" pageWidth="850" pageHeight="1100" math="0" shadow="0">
      <root>
        <mxCell id="0" />
        <mxCell id="1" parent="0" />
        <mxCell id="LO5_I1fZBrPY9ydtKE4v-1" value="" style="shape=image;verticalLabelPosition=bottom;labelBackgroundColor=default;verticalAlign=top;aspect=fixed;imageAspect=0;image=data:image/png,iVBORw0KGgoAAAANSUhEUgAAAYIAAABFCAYAAABHYOExAAAAAXNSR0IArs4c6QAAAARnQU1BAACxjwv8YQUAAAAJcEhZcwAADsMAAA7DAcdvqGQAABA+SURBVHhe7d0PVFNXngfwr0JQIiYqzJQoSR2jJYNwFrIjTJWu0C2Mg3XWaeFs6znVo3X9UxXU2kor47/6D2tVqq52C86hOwe3R2e2TgvHwZ3FbmHmYDvYLahxNT02dBpsg05Q45+g7nvhJnkvvECkAQLv9zne470vL8njveT97r3v3pch2ri4ByCEECJbQ9n/hBBCZIoCASGEyBwFAkIIkTkKBIQQInMUCAghROYoEBBCiMxRICCEEJmjQEAIITJHgYAQQmSOAgEhhMgcBQJCCJE5CgSEECJzFAgIIUTmKBAQQojMUSAghBCZo0BACCEyR4GAEEJkjgIBIYTIHAUCQgiROQoEhBAicxQICCFE5oZo4+IesDwhhAwy9/HWtptIGc2KEswfjcS/VLKCPzNv47+fdrKChGsR2PP6MHzIigMNBQJCeig8NgW5ednQwYKTR4/iTEs7e4SEjnt4/z+teDyKFSVc+l0cnjzICv4sbYPlmTZWkHBjDDb+UonDrDjQhHTXkHJoAhKGJ/tPijFsTUL6WHgGVm/OR7bRAIMxGys2v4yMcPYYIQNMSLcIpk7+CAUpI1lJQvNR/PPH+1mBkD4UvwR7CtOgZkXAjvodK/HOBVYkIULcImj+w1jsqO7Iu7U1D8XH11jBn9EPMEvrc6rMvo4DP7vekacWASEyZDbBKuwydlpxwczyJGTduTkUH34hTt0GAd61IZ2e9+HNIezBgS+kWwR819D4iAhW6jB9agkyxrJCf7cIhudi4fh0TIqJgkJ1F59WvYQj7CEy+IXHTsPcOemIgQ11FeWoo2sEIUjcIgjoekCghNcNqEXQexz3z+Hc7c9FyXGPPRgKYmYg6ycpGD9+EsaNiYA4ZJHBrr2lDod3F2Pn7jIKAmRAo64hQgiROVkHAtGoJIUOSracdIiM1kKrdadYqPpxVIx4W7SIDfLGhKtiPa8dHckW9hHR3xarQk//slA6XmRgGXDzCOZN/xg5Wlbo0TWCKCQ8UoiFqU9gnHfIR4d71/HXLypQerYC59gisXTkZ63HFBUrhg2D8BLG3Vt3WM7tLi7WPo3NV1ixN2Ssxv48PSuYcWzZbpxiJa8MrDqQB89aR5dhT+eVOkTG49ml85CZpJEMjE6HFaaaCpR90IQ2qd6QYG1PeCxSZs9GltEAvUYNBVsswm1LY2Up9lV9Cb8dM/FzsTVfOLqHY6tF8YYjaOaykfG5WLE0Gwa18B2caCxdhD11rMhkrD6AXPdGS+hyv3YSifjcfCzJNkD01jynHeb6oygrr0O3PU7f93gNeqF7jSAyPgtzZxq5z6YdZyrLcfLCLfZI35NZiyAK0ye/hw1ZEkGAFzYS41IWY0POTkxni8QiMGI4d/KPZMnnooBnuSdxX8TePrZKJfdPkNhiMZ91/DV9onOwrqQQM/2cVHgKpQZJM1/G3pIi5MSyhUKi9+ESWyzms47USu0aTMtMg8FfEODx25L3K7y5JLGLWrTve3FJo3MFofDEJdhWONMnCPAccNhYVqDT63RKbMXuhCfihW0lWDtTIgjwFGro0xdi2/YXkdhVrT4Yx4v0i47P3hykJRlgSErD84XbsbjLg927ZBUIJsbtxcKUaFbi6utXzuDkiXXYdGw7Kj67iJvuC9Fj0rBw+nJMZEWvq/im+SIuX2bpOzaG2OU6vnUv96TT+LSLyYihRYsXCrlauufE5IC1oRqVXE3l0MEK7v9q1Jus3FL2qKka1S2s0Cu4Y9No5/53wmYxobGe35ZKV6ppsHB1KC912lIsSWEFXw4zzCYTTCbuOe7hnooYaLna2FphS8Hp4N7JzQG7lWUFrNx2mFyv5U7e/RE4FbIK85Gp8UYAu7ke1a6/jdvHZsFfFpOOFYU58H5ihULseI17AxPzf4/EgNNvED2OPVeGMmf7tFK5UtrsTJbve/LpGhq6HMW5eRjPavF/O7Mdq86eEH2Rlaqd2POLNIxyla7jbOXT2NzVGOO4UryfMYkVLqLqNwtRzkp9JqcIh4VdMfO3oIqVvLia46+FXTHzsdV3Je1c7NyciRhWtFavwbojrawkEB6LaXlG2I9WoUmqqyFY28OLjETkrVuQbFRxteGN2/OgYydCp6kci4u76peJx+K9hUhzffucsHNRQa3m6tFOK+rL30ZZXQuyi37Nun78bbevAP8OoZQV2J9v9NTg7fVv4ZVDTYKurXAkLtmF1R0bynHCVP4Sdp7y2dnBOl7BMvEwHi+YghGs2L02XCyZhq8usWKvCc2uoRzPZ03AXIEFW06yQt+STYsgQZ/uCQK4exanfIIAz9G2GafM7n7+kZhkmMPyMqBUirpgnHZhnVugvQV1R3r5pOLmLwjwWqu4Y+WtwytidFwdOVCKjiAAK6rXr8c7XBAQ/Tl2GxcKekdGdpK3G8fRgCOiIMBrR9OhCjR4PpwK6NPSO3d9heLxIgGrrTcLWqA8LuDX1rB835NJINBhulbD8pxvzvmZ+HUDx7/xtp8jYpIxleUHPbMFwm5xXd4uvJqbGNIjT6x2QShXKP32k/tjqzmI/5C6Gut09KDLJxCpSHQ3YThOSyNOs7zYaTRZBEFOlwQjy3uE2vG6tAB/XpGE/wo49UVrIHS1ndyBDaW1MFntsFtNqC1dj92+rb4+JJNAkIofCG5De/PWVfHN6wRp/O2ruMnWg3oM3B0/g157NY7Xi3reYeAvMr77b9i/bS0W56ZiQr+cZcKhSszAs3NX4NW1a7Fx217sP3DAlVYbpa74B8hpQlUFP27Iq2rLfCyYz6VX3nONKAo6lR4aQbRy2CQuRDBWmyAUKTXcvmd5t5A9XiQw7WipK8PO11di1evFOOzbKu1jMgkEsRghGBs+4seLsSG3RDplpTxEP+dg0o6mQ2+grMHm02RVcOchA9JmLkVRybvYv2kFsuL7ZqB99LQl2HjgXex9eR5mZhphMBig06g9o3QUwr6Rh+RorEGfV8D4bWdZns3q/w51F6zC+r4SakGDtkPoHS8ycMlq1BDpTivq9r2CZQVv4Ui9CVaH+BTDU+qMeL5wF9blSI9lCZbonCJsW5gGnbdDHVZLA2rYyCE+1Vp63oHjdPrpUx9QQud4YeJB/H3xZ3gi4HQC4zoPyyP9RCaB4Cqcd1mWc/P8O9h0rCCAtAMfsOfISXtbE04eKsa6ZYuwqOANHKqsh9kz9pKnhD4vH8/6dlcEzTTMna33Xgy112PfS8uwbsM+/PuxY/gtS3Wi238OAA7hEFUgRhPPcp3Fa9zjgXjSw1nd+v948YYhQjkMwwJOI3s8g5oEn0wCwTl8K6gAjogag8s+N7OTTpdE49XlqL3tS5w+dghbV76E3aI+aR0M6SwbbKlGwfh4wFxdijP9N+kyeJotsAnOzwql/2scaqVgB3Ctl5YA56P0y/EiPROuwoTULGSk9P/tQGQSCD7HZ18LJn89kow8OXWKcR+y79GdzrSjqcYknsilmcByD6m77YkR9qXbYTMPlrGPtWiysCxHaUiD9Dy4FKQaBFcTLI3cMx9WEI9XIGjU0MNxzQovQdHSOZibv71j5ncv9951ZeCdDoW3oY6Ikpj9K+1P5tP4luURMQlPPSE1c5jH34toOX4eyJnz9g14e5x0mKTp4odRe4uod0TD1TBY1i18Ap771Wxu67oTjZy1m7B8WqzfJnu0XnwrA7vlS5YTCMb22OyC4Ztq6IwS3xDui5T7fUYN9Yt2VNeavLtImYR/kvj2R+fMRpJnR/Pjy6u5Z/oK0vEi/SJj4WzohQdHqUfOHH/T43tfmFql2sjyA8J3Q57EjEc75v4iahJ+OjoBY5GE5FGPIy3uRcwZF4VPWhrF5yNe+1/guDcDU9j4vTD1ZPzjo09i0p0w3L4TgVHhyZiqW4TF6a9iVsJkJKjHoPGrP+Oqa20/HBFImjAVP3RNVAtH9KO/wJT2WIwf8TiM3Pakxxdg8U9nYNSF3+N/e2v+tnM8pmX+iH3hFdA8pofjytdw8verSZuHFaueQ3JMmOtRt2vnjuOTi6zgws9m3YoXkx+BxvgUZmUaof0h99JX70GhVnM1SQOy5izD/KfiMJw9gx9++dGBOly+z8puwdieK0ok/jwZ7tVG6rntsVtgvtIKp3ICfvLMIqxZOh0a4csMD4Oj/mM03fDZIFUismb9A1ISHoNer/Pc2+c+t1pkjB4JCQlIiLqO83/tru9FhcSsWXjCyK3PP8eV9NA/9ojnZHv/vgKqcYLHJV73/mULRqdn4keuJ4VBPTkdqTonrlmd3L7WI21ePpYI97P1jygu+8JnYl0Qj9eg9wB5z92Alk0mvXpehfLPOvLf25Q7WPVjNgH1biROva/AmY5StxIyn0GCz0+uKxwWHP8f0Rezzwy4W0wAM/BazmtI9vu79V/hZMVclEp+4BMwL30vcsYPY+Uu3GvFpyeewa5ufsZuYlwpNmRM6vJHaW6e34flfznWS5OUVMgq2oXnhZ3qPpzWWjQ602Fk1fDOt0LQIqeoELmiKkpX7GgofQP76yRuaRCU7eFrxUXYlie4YCzBaW6ERZfkvZ5gr0fxykMQDcrs9NvCEsxHsWBLd/eGEN6iIkD+XpfvFticJ64RSnGY8N76YpzqtJuDebwGu9C8xYT2xTexKV04IIA73A0HsXyf9BTD3jYAe8pPYPvJfTj7HSv6uheFUX6/rOdQXvscSj45i7/5u/h47zq+/b/j+Nf353YbBHiXvl6J7X/kXs/fL6fdsuIbW2/e7asNJ3e8jRqrVJhxwFLPBar1ZbjQqYkk1IyqLQVY+VYlGiVfx80Ju7kWZa+t6eKkEozt4e8gsQPFR8V93F52mGtL8fqW3Sh+uwbut7KbasRBIFS1VmHrmh2oNNk7t1xduP1sqkTxGqkgwAvm8SL9obn8IGpFd7h1wFTbP0GANwBbBF5qxQxkjE3AD/jCXQs+t53GOaclwJp3FMYqkvF3MakY56rOt+DildP4/HZPRwqNwaMjnkRGjK6jFnv7HP50ld+eLjuXgioyOgVpmXrX3SpbuRNAQ2NLz+5BHxkNrSEJqXp3jcWGL+tNMFsf7vWCsj3hKsQmGTHNtS12NDc2oPFCq09XSSSiU5Kgs5zGmYF2vvPZ163mejSamtH6MKOkgnS8Bidxi6D5D2Oxo7oj39Yc4A/X80Y/wCytz6ky+zoO/IwNQnno3yOIxwKuhZnurrTaarHhlbLemdEegAEdCAghpGviQCAloO4iYTeQlIcNBKrnsbUkG+4J45bKAmw8FuAY4V4gp0GUhBASGow6zy3E+bvQHu/HIMCjQEAIGcSG4Ovzaly65D+ZBXM7/LJESD7Xk86Hwd9lSymJBo1nIISt4YOARxv1FuoaIoSQPqXFC29uRqarSWBBZcEG/LZ/GwTUIiCEkL4VA6eN/dxpTSWO93MQ4FGLgBBCZI5aBIQQInMUCAghROYoEBBCiMxRICCEEJmjQEAIITJHgYAQQmSOAgEhhMgcBQJCCJE5CgSEECJzFAgIIUTmKBAQQojMUSAghBCZo0BACCEyR4GAEEJkjgIBIYTIGvD/5N6gTVJUsd4AAAAASUVORK5CYII=;" vertex="1" parent="1">
          <mxGeometry x="200" y="270" width="386" height="69" as="geometry" />
        </mxCell>
        <mxCell id="LO5_I1fZBrPY9ydtKE4v-2" value="" style="shape=stencil(lVtJchw3EHwNrwjsQJ1l+R+KEGUyTIsKivLye1eZxqi7siebcxuNkARqX+eufPj+8Onb/V2O319fnn+//+vx8+vDXfnlLufHrw/3L4+v+umufLwrH748v9z/9vL84+vnt39/+2Qn7dMfz3/aX/j7DVdCKQbK8Z+3L3rI7b8vfn07/vT4dXc81t3xlEOR6+dzGGl3Xr+JmZ1vcXe+pFAnO5/m7nyNYcTr51OYe3LrpO9Poe/f31oQ8p4U2v58LyGlW85LmIPS23fnR6P81NvH/vwIqVw/X0Oq/nwn72+Le5vzk/BftWsv3zFDI/o2QtzLa0hohP8jyP7vT9UHQu8Mc8//mYIQfsrSrsv5TPUzxfXcDWAQgtNF3zcAYRqkD9iLbKqRshvU5KcHMJ1INZTmAZkwKbWQOwAqAfSQ4k039DDhhsSIVjW+jWjVy9tuEG/KRgMRXFbVyB5QGECdRQEAc77qTYcHUG9aQocbGnNHNQxg62A0tDARwGjoQYCGSQSnJh3BHv5XlmOAeB9jAOZT4wGA0aAxLIKkB3lS0SAJyjeI4IrqJtzA/HCpy77eyaXSlm5uAYzoHgrY9CROoIwjANGlMkOWm7gkPtk5EZwmEwVuYE+q6r2RS0QOVdMn0FYWsGrxEVoBLELXenBDYU9qPsewgELsQQECNyQi6dqXIrxTlzRJSy4C1dAYQMDiKlWNpjbtlK+tb44BatPDA1iMaxkE10IlbG2QuymgMUA9ALBkUnPZ6Niq+RkHeMH10Ikc2oDArt9wgIgHRCY4zeCABmEZaFwJ+QbAtLWnA9Vg3rvnAwCTtNUItwHqYuIWQNjaG/jWtkL9MaCD52vUL/URKsiBCa5PyFv7yqCOAQJpqEqa1Q4RuDRovqQAn2sManEjrVx+CyBcGlDfKoBlZKOAxSkN7Elq00A0y1vHxeQ3gEHsQSs8D5g0Ag2M05MTLaF3DyjkSVq0ubJSAYNwaaKJTlr3WRHmAoqslOsYgIIT2lnRANXFA1icNpNvcANRb7OvcRMNA1IH5RKrpueRarAnyYqZW/UmkpYI6t2XH7kG8BV+ox0HSVCx11BJUJQMZVmlqYOUZcHbFI7IQSrkGnmVs8eABhVKpPmSApx6D+75ROP+XvnMUzEuDW+i6s8pl4Znq0a9SMKuAlwtqrkBK14VIHsaNEerxJHJ9HG6DmpACsj7G7SiyCeAPQ1W2TGixT9J69/EiJ6rtr0AlA3shum9Rr4kddcAZe+9tein2qpE7yWdy0rqrsphzyXr63LBuRuS0C4c0pAG7cIJtIuS+iXOVueXUuPaKiud2gAKccYC+VLieasCmngaWCNEAc7iEu+mK8B1f3Kk2YwCXD8383mD3eB0Sb0301bNNZx6d9oYVIALu2oPJze4NNRaVNweJHnAicV1fBJX75o90axXKRDYla2NP8kTnc8ALj6oarAayEx0D0g8q5TpO+um3kyXLjnkxoBYM8cEJx5As5lbASlCnyKrPrI+NiKs0caUQ3w7pzaauZob2PNJ4+iJVTtnqZH6BODCotanJ3HU0aCVVzmJcnub0wToxH/73kkKncl6eJubjfZDNcVyZZPmstRINczuJa2pKaWhrpL+AqjchIpPE4X3HfQBTsGNKnZD9m5AAVRb03rABiAsjkZfXAoP7ROClvAoNyEns1DMbgDvurHad1ZmZoRE1Fj7mRESNmF1aUQwqqufsBmA3QAVsoVWRnT2cdFoYIDk+znCp8cKcGMUA7B+DmQPRjRrnkBiaUQTwakbingDcX2jAw28IsCOkQzaBcaelAIi66vlAxudrAGUVgdqA2D5unXuigfQPYEINspb31qtOhsVXtX0ubR/A6B95uFnR+afWSe7L3PZum/CpQ4zPAUwLmnF7b1x5esdMJ2yVsRJr1w8gHay04Hg2EShRz/pNF1iIwiYKFgrgu3ADHAzgwY5BURQbzazaA0C9WXmdgyo8KRGnbHNjhyXKn8STKcUwCYKOP/6mX4cA2DCZsrHh34+2Wi0bqriU2MFZDZ8hQaQ8KFfHb7xcGIPtfvWhpyMRmFaqykUG+TjPNgamERbceJsSRrRJZxpK4CNIHBqrgBWIeNc3gDkSTj5l0xDFu4WGA1soQK2F05owP0IA7D9CPTemSaJuONhAKLeuEVyRgPsqRiX2MoGbMIYgGQzuGtzIgfc5jlRDdwXOuESbiQZgKg37jyd0QBbVQZgNMDelvAKHDfDrFRkT4LdM8k0TuN2m2RacOD+nAI6A0DLVQFscIk7gHKyiwlbhgZgzRbYYzyjATYlDcBogF1MA9y07XlGQ179pC2ArUinNR57ZwSynViwOAaQNR3bvogVu76PLZn2yIafvNoMkCWtvnUvfMm4+UpgCrWdCtt/Qmecyg2cutIleL/lybtpEVaSEx0ORu/ktWJkVgAdys6X7KOfhGjKzgJh9JG28hIaOkQ10QW45ENO4fOr5AO5SpyNr0Be6gVYQZLAbdFyJPvlOr69l1cT8vJ6Oi/Jnti0XN6V48778ME1xLHIA6XvVPM2W14j7c1fZ9mN1/tIu6mQVyeeYfpZcqK7GLBkkOmCS/F9KXVClFR3nPc2bv6V0clx/fDzB01fHp+e3n4Ptf1//wMo/ertx1Pl478=);lineShape=1;strokeColor=#A680B8;fontFamily=Architects Daughter;fontSource=https%3A%2F%2Ffonts.googleapis.com%2Fcss%3Ffamily%3DArchitects%2BDaughter;" vertex="1" parent="1">
          <mxGeometry x="222.40039449903884" y="310.7999139416952" width="350.60635552393956" height="46.84921533287161" as="geometry" />
        </mxCell>
        <mxCell id="LO5_I1fZBrPY9ydtKE4v-3" value="&lt;font style=&quot;font-size: 36px; color: rgb(166, 128, 184);&quot;&gt;Text&lt;/font&gt;" style="text;strokeColor=none;fillColor=none;html=1;align=center;verticalAlign=middle;whiteSpace=wrap;rounded=0;fontSize=20;fontFamily=Architects Daughter;fontSource=https%3A%2F%2Ffonts.googleapis.com%2Fcss%3Ffamily%3DArchitects%2BDaughter;" vertex="1" parent="1">
          <mxGeometry x="363" y="360" width="60" height="30" as="geometry" />
        </mxCell>
      </root>
    </mxGraphModel>
  </diagram>
</mxfile>
